<svg width="10" height="6" viewBox="0 0 10 6" fill="none" xmlns="http://www.w3.org/2000/svg">
<path d="M5.49001 5.99072C5.31562 5.99072 5.16529 5.93059 5.03901 5.81032L1.16943 1.93172C1.04315 1.80544 0.980011 1.65511 0.980011 1.48072C0.980011 1.30634 1.04165 1.15751 1.16492 1.03423C1.28819 0.910959 1.43702 0.849323 1.61141 0.849323C1.7858 0.849323 1.93613 0.909456 2.06241 1.02972L5.49001 4.46634L8.91761 1.03874C9.04389 0.912463 9.19422 0.849323 9.36861 0.849323C9.543 0.849323 9.69183 0.910959 9.8151 1.03423C9.93837 1.15751 10 1.30634 10 1.48072C10 1.65511 9.93687 1.80544 9.81059 1.93172L5.94101 5.81032C5.81473 5.93059 5.6644 5.99072 5.49001 5.99072Z" fill="#3E464C"/>
</svg>
