<svg width="56" height="19" viewBox="0 0 56 19" fill="none" xmlns="http://www.w3.org/2000/svg">
<path d="M13.4817 0.769226V2.3064C13.4817 2.76361 13.4308 3.1341 13.3293 3.4179C13.2276 3.6938 13.1298 3.92634 13.036 4.11553L7.10243 16.7913C6.93826 17.1224 6.70373 17.4062 6.39884 17.6426C6.10177 17.8792 5.70306 17.9974 5.20273 17.9974H2.55254L8.65033 5.66452C8.83013 5.33345 9.00995 5.0339 9.18975 4.76588C9.37738 4.48997 9.58455 4.22984 9.81126 3.98547H2.29455C2.1851 3.98547 2.07957 3.96576 1.97794 3.92634C1.88413 3.87905 1.79812 3.81992 1.71995 3.74897C1.64959 3.67014 1.59096 3.58343 1.54405 3.48884C1.49714 3.38636 1.47369 3.28388 1.47369 3.18141V0.769226H13.4817Z" fill="#FF7119"/>
<path d="M20.9298 15.2896C21.3051 15.2896 21.653 15.2187 21.9735 15.0768C22.3019 14.9348 22.5833 14.7417 22.8178 14.4974C23.0524 14.2451 23.2361 13.9535 23.369 13.6224C23.5097 13.2834 23.5801 12.9169 23.5801 12.5227C23.5801 12.0813 23.5136 11.6871 23.3807 11.3402C23.2556 10.9934 23.0758 10.7017 22.8413 10.4653C22.6067 10.2288 22.3214 10.0474 21.9853 9.92132C21.6569 9.79518 21.2894 9.73213 20.8829 9.73213C20.5155 9.73213 20.1794 9.79912 19.8744 9.93314C19.5696 10.0593 19.3037 10.2445 19.077 10.4888C18.8582 10.7333 18.6862 11.025 18.5611 11.3639C18.4361 11.7029 18.3734 12.0852 18.3734 12.5108C18.3734 12.9366 18.4243 13.3188 18.526 13.6578C18.6275 13.9968 18.7839 14.2885 18.995 14.5328C19.2061 14.7772 19.4718 14.9664 19.7924 15.1004C20.1129 15.2265 20.492 15.2896 20.9298 15.2896ZM20.3436 7.3909C20.8908 7.18593 21.5005 7.08346 22.1729 7.08346C22.7904 7.08346 23.4003 7.18593 24.0022 7.3909C24.6042 7.59585 25.1436 7.91116 25.6205 8.33684C26.0973 8.76252 26.4804 9.3025 26.7697 9.95679C27.0668 10.6032 27.2153 11.3678 27.2153 12.2508C27.2153 13.0548 27.0668 13.8194 26.7697 14.5446C26.4726 15.262 26.0504 15.8926 25.5032 16.4365C24.9638 16.9726 24.311 17.3983 23.5448 17.7136C22.7788 18.029 21.9305 18.1866 21.0002 18.1866C20.0465 18.1866 19.1904 18.0368 18.4321 17.7373C17.6738 17.4298 17.0288 17.0041 16.4973 16.4602C15.9735 15.9163 15.5708 15.266 15.2894 14.5092C15.0158 13.7524 14.879 12.9207 14.879 12.0142C14.879 10.3194 15.5278 8.59698 16.8255 6.84697L20.6718 1.60875C20.8517 1.38015 21.1096 1.18308 21.4458 1.01754C21.7898 0.851997 22.1807 0.769226 22.6185 0.769226H25.855L20.7891 6.87062L20.3436 7.3909Z" fill="#FF7119"/>
<path d="M40.8902 9.37738C40.8902 10.883 40.7299 12.1876 40.4094 13.2912C40.0889 14.3948 39.6433 15.3093 39.0726 16.0345C38.5097 16.7597 37.8374 17.2997 37.0556 17.6544C36.2817 18.0092 35.4413 18.1866 34.5344 18.1866C33.6276 18.1866 32.7872 18.0092 32.0133 17.6544C31.2471 17.2997 30.5826 16.7597 30.0197 16.0345C29.4569 15.3093 29.0151 14.3948 28.6946 13.2912C28.3819 12.1876 28.2256 10.883 28.2256 9.37738C28.2256 7.87173 28.3819 6.56711 28.6946 5.46349C29.0151 4.35988 29.4569 3.44547 30.0197 2.72024C30.5826 1.99501 31.2471 1.45896 32.0133 1.11212C32.7872 0.757382 33.6276 0.580017 34.5344 0.580017C35.4413 0.580017 36.2817 0.757382 37.0556 1.11212C37.8374 1.45896 38.5097 1.99501 39.0726 2.72024C39.6433 3.44547 40.0889 4.35988 40.4094 5.46349C40.7299 6.56711 40.8902 7.87173 40.8902 9.37738ZM37.1377 9.37738C37.1377 8.18705 37.0635 7.21351 36.9149 6.45674C36.7664 5.6921 36.5671 5.093 36.3169 4.65943C36.0745 4.22587 35.797 3.93026 35.4842 3.7726C35.1716 3.60707 34.855 3.5243 34.5344 3.5243C34.2139 3.5243 33.8973 3.60707 33.5846 3.7726C33.2797 3.93026 33.0061 4.22587 32.7638 4.65943C32.5292 5.093 32.3376 5.6921 32.1891 6.45674C32.0484 7.21351 31.978 8.18705 31.978 9.37738C31.978 10.5756 32.0484 11.5531 32.1891 12.3099C32.3376 13.0666 32.5292 13.6657 32.7638 14.1071C33.0061 14.5407 33.2797 14.8403 33.5846 15.0058C33.8973 15.1634 34.2139 15.2422 34.5344 15.2422C34.855 15.2422 35.1716 15.1634 35.4842 15.0058C35.797 14.8403 36.0745 14.5407 36.3169 14.1071C36.5671 13.6657 36.7664 13.0666 36.9149 12.3099C37.0635 11.5531 37.1377 10.5756 37.1377 9.37738Z" fill="#FF7119"/>
<path d="M54.4948 9.37738C54.4948 10.883 54.3346 12.1876 54.014 13.2912C53.6935 14.3948 53.2478 15.3093 52.6771 16.0345C52.1143 16.7597 51.442 17.2997 50.6602 17.6544C49.8863 18.0092 49.0459 18.1866 48.139 18.1866C47.2321 18.1866 46.3917 18.0092 45.6178 17.6544C44.8517 17.2997 44.1872 16.7597 43.6243 16.0345C43.0614 15.3093 42.6197 14.3948 42.2992 13.2912C41.9865 12.1876 41.8301 10.883 41.8301 9.37738C41.8301 7.87173 41.9865 6.56711 42.2992 5.46349C42.6197 4.35988 43.0614 3.44547 43.6243 2.72024C44.1872 1.99501 44.8517 1.45896 45.6178 1.11212C46.3917 0.757382 47.2321 0.580017 48.139 0.580017C49.0459 0.580017 49.8863 0.757382 50.6602 1.11212C51.442 1.45896 52.1143 1.99501 52.6771 2.72024C53.2478 3.44547 53.6935 4.35988 54.014 5.46349C54.3346 6.56711 54.4948 7.87173 54.4948 9.37738ZM50.7422 9.37738C50.7422 8.18705 50.668 7.21351 50.5195 6.45674C50.3709 5.6921 50.1716 5.093 49.9214 4.65943C49.6791 4.22587 49.4015 3.93026 49.0888 3.7726C48.7761 3.60707 48.4595 3.5243 48.139 3.5243C47.8185 3.5243 47.5018 3.60707 47.1891 3.7726C46.8843 3.93026 46.6107 4.22587 46.3683 4.65943C46.1338 5.093 45.9422 5.6921 45.7936 6.45674C45.653 7.21351 45.5826 8.18705 45.5826 9.37738C45.5826 10.5756 45.653 11.5531 45.7936 12.3099C45.9422 13.0666 46.1338 13.6657 46.3683 14.1071C46.6107 14.5407 46.8843 14.8403 47.1891 15.0058C47.5018 15.1634 47.8185 15.2422 48.139 15.2422C48.4595 15.2422 48.7761 15.1634 49.0888 15.0058C49.4015 14.8403 49.6791 14.5407 49.9214 14.1071C50.1716 13.6657 50.3709 13.0666 50.5195 12.3099C50.668 11.5531 50.7422 10.5756 50.7422 9.37738Z" fill="#FF7119"/>
</svg>
