<svg width="21" height="21" viewBox="0 0 21 21" fill="none" xmlns="http://www.w3.org/2000/svg">
<path d="M19.5738 10.8C19.5738 5.54014 15.3098 1.27618 10.05 1.27618C4.79014 1.27618 0.526184 5.54014 0.526184 10.8C0.526184 16.0598 4.79014 20.3238 10.05 20.3238C15.3098 20.3238 19.5738 16.0598 19.5738 10.8Z" fill="url(#paint0_linear_1_81)"/>
<path fill-rule="evenodd" clip-rule="evenodd" d="M4.95743 10.6995C7.7338 9.48984 9.58518 8.69236 10.5115 8.30709C13.1564 7.20702 13.706 7.01591 14.0642 7.00959C14.1429 7.00821 14.3191 7.02774 14.4332 7.12034C14.6024 7.25769 14.6034 7.55583 14.5846 7.75315C14.4413 9.2591 13.8211 12.9136 13.5056 14.6003C13.3721 15.314 13.1092 15.5533 12.8547 15.5767C12.3017 15.6276 11.8817 15.2112 11.3461 14.8601C10.5079 14.3105 10.0343 13.9686 9.22064 13.4324C8.28034 12.8127 8.88991 12.4722 9.42577 11.9156C9.56602 11.77 12.0028 9.55348 12.05 9.35241C12.0559 9.32725 12.0614 9.23351 12.0057 9.18403C11.95 9.13455 11.8678 9.15144 11.8085 9.1649C11.7244 9.18399 10.3854 10.0691 7.79132 11.8201C7.41122 12.0811 7.06695 12.2083 6.75851 12.2016C6.41844 12.1943 5.76434 12.0094 5.27808 11.8513C4.68165 11.6574 4.20761 11.5549 4.24891 11.2257C4.27041 11.0541 4.50657 10.8787 4.95743 10.6995Z" fill="white"/>
<defs>
<linearGradient id="paint0_linear_1_81" x1="10.05" y1="1.27618" x2="10.05" y2="20.175" gradientUnits="userSpaceOnUse">
<stop stop-color="#2AABEE"/>
<stop offset="1" stop-color="#229ED9"/>
</linearGradient>
</defs>
</svg>
