<svg width="21" height="21" viewBox="0 0 21 21" fill="none" xmlns="http://www.w3.org/2000/svg">
<path d="M19.1478 5.85546L19.1422 5.83349C18.6827 4.03617 16.6109 2.10763 14.7085 1.70642L14.687 1.70213C11.6098 1.1342 8.48969 1.1342 5.41315 1.70213L5.39104 1.70642C3.48919 2.10763 1.41745 4.03631 0.957341 5.83349L0.952235 5.85546C0.384167 8.36537 0.384167 10.9109 0.952235 13.4208L0.957341 13.4428C1.3979 15.1633 3.31527 17.0033 5.14677 17.5093V19.5156C5.14677 20.2418 6.06142 20.5984 6.58153 20.0744L8.68256 17.9614C9.1383 17.9861 9.59425 17.9998 10.0501 17.9998C11.599 17.9998 13.1487 17.8581 14.6869 17.5742L14.7084 17.5699C16.6109 17.1687 18.6826 15.24 19.1421 13.4429L19.1477 13.4209C19.7158 10.9109 19.7158 8.36551 19.1478 5.85546Z" fill="white"/>
<path d="M19.1478 5.85546L19.1422 5.83349C18.6827 4.03617 16.6109 2.10763 14.7085 1.70642L14.687 1.70213C11.6098 1.1342 8.48969 1.1342 5.41315 1.70213L5.39104 1.70642C3.48919 2.10763 1.41745 4.03631 0.957341 5.83349L0.952235 5.85546C0.384167 8.36537 0.384167 10.9109 0.952235 13.4208L0.957341 13.4428C1.3979 15.1633 3.31527 17.0033 5.14677 17.5093V19.5156C5.14677 20.2418 6.06142 20.5984 6.58153 20.0744L8.68256 17.9614C9.1383 17.9861 9.59425 17.9998 10.0501 17.9998C11.599 17.9998 13.1487 17.8581 14.6869 17.5742L14.7084 17.5699C16.6109 17.1687 18.6826 15.24 19.1421 13.4429L19.1477 13.4209C19.7158 10.9109 19.7158 8.36551 19.1478 5.85546Z" fill="#6F3FAA"/>
<path d="M12.6501 14.3087C12.4686 14.256 12.2957 14.2208 12.1349 14.1571C10.4706 13.4978 8.93891 12.6471 7.72569 11.3431C7.03573 10.6017 6.49571 9.76452 6.03926 8.87859C5.82276 8.45847 5.64035 8.02192 5.45438 7.5881C5.28484 7.19258 5.53458 6.78397 5.79751 6.48587C6.04427 6.20613 6.36184 5.99213 6.70573 5.83429C6.97412 5.71118 7.23884 5.78219 7.43489 5.9994C7.85862 6.46908 8.24794 6.96276 8.56304 7.50722C8.75688 7.84209 8.7037 8.25144 8.35238 8.4793C8.26698 8.53468 8.18919 8.59976 8.10968 8.66228C8.03989 8.71712 7.97428 8.77249 7.92645 8.84672C7.83907 8.9825 7.83488 9.14276 7.8911 9.29041C8.32428 10.4271 9.05439 11.3111 10.2526 11.7873C10.4444 11.8634 10.6369 11.9521 10.8578 11.9275C11.2277 11.8863 11.3475 11.4988 11.6068 11.2964C11.8602 11.0985 12.184 11.0959 12.4569 11.2609C12.7299 11.4259 12.9946 11.603 13.2576 11.782C13.5158 11.9576 13.7728 12.1294 14.0109 12.3298C14.24 12.5224 14.3189 12.775 14.1899 13.0364C13.9539 13.5151 13.6103 13.9132 13.1148 14.1674C12.9749 14.239 12.8078 14.2623 12.6501 14.3087C12.8078 14.2623 12.4686 14.256 12.6501 14.3087Z" fill="white"/>
<path d="M10.0868 5.28696C12.2637 5.34524 14.0518 6.72479 14.4349 8.77997C14.5003 9.13017 14.5235 9.48814 14.5525 9.84361C14.5647 9.99309 14.4761 10.1351 14.3072 10.1371C14.1326 10.1391 14.0542 9.99963 14.0427 9.85028C14.0204 9.55448 14.0048 9.2573 13.9622 8.96404C13.7368 7.41545 12.4437 6.1343 10.8296 5.8594C10.5866 5.81802 10.3382 5.80718 10.092 5.78252C9.93649 5.76695 9.73282 5.75798 9.69837 5.5733C9.66949 5.4185 9.80629 5.29526 9.96066 5.28732C10.0025 5.28496 10.0447 5.28683 10.0868 5.28696C12.2639 5.34524 10.0447 5.28683 10.0868 5.28696Z" fill="white"/>
<path d="M13.395 9.38233C13.3914 9.40833 13.3896 9.46933 13.3736 9.52677C13.3159 9.73544 12.9845 9.76155 12.9083 9.55101C12.8856 9.48854 12.8822 9.41741 12.8821 9.35015C12.8813 8.90992 12.7811 8.47004 12.5486 8.08693C12.3096 7.69317 11.9444 7.3623 11.5162 7.16193C11.2571 7.04087 10.9771 6.96555 10.6932 6.92078C10.5692 6.90115 10.4438 6.88933 10.3191 6.87273C10.1681 6.85268 10.0874 6.76076 10.0946 6.61862C10.1012 6.48545 10.2032 6.38953 10.3552 6.39784C10.8548 6.42486 11.3374 6.52811 11.7816 6.75265C12.6847 7.20943 13.2007 7.93032 13.3513 8.89301C13.3582 8.9367 13.369 8.97984 13.3726 9.02358C13.381 9.13155 13.3865 9.23971 13.395 9.38233C13.3914 9.4082 13.3865 9.23971 13.395 9.38233Z" fill="white"/>
<path d="M12.041 9.33192C11.8589 9.33507 11.7615 9.23874 11.7427 9.07938C11.7297 8.96826 11.7192 8.85557 11.6915 8.74736C11.6368 8.53426 11.5182 8.33687 11.3305 8.2063C11.2419 8.14468 11.1415 8.09978 11.0364 8.0707C10.9028 8.0338 10.764 8.04397 10.6308 8.01283C10.4861 7.97897 10.406 7.86699 10.4288 7.73739C10.4494 7.61937 10.5696 7.52728 10.7047 7.53667C11.5488 7.59483 12.1519 8.0115 12.238 8.96033C12.2442 9.02728 12.2513 9.09798 12.2357 9.16215C12.2089 9.27163 12.124 9.32658 12.041 9.33192C12.124 9.32658 11.8589 9.33501 12.041 9.33192Z" fill="white"/>
<path d="M12.6501 14.3087C12.4686 14.256 12.8078 14.2623 12.6501 14.3087V14.3087Z" fill="white"/>
<path d="M10.0927 5.28722L10.0869 5.28697C10.0869 5.28697 10.0875 5.28703 10.0927 5.28722Z" fill="white"/>
<path d="M10.0924 5.28716L10.0869 5.28693C12.178 5.34292 10.2132 5.29129 10.0924 5.28716Z" fill="white"/>
<path d="M13.395 9.3823C13.3865 9.23967 13.3914 9.40817 13.395 9.3823V9.3823Z" fill="white"/>
<path d="M12.041 9.33193C12.0439 9.33175 12.0467 9.33038 12.0494 9.33008C12.0418 9.33008 12.03 9.33026 12.0179 9.33069C12.0257 9.33087 12.0328 9.33199 12.041 9.33193Z" fill="white"/>
<path d="M12.0179 9.33069C12.0257 9.33087 12.0329 9.33199 12.041 9.33193C11.9377 9.33369 11.9785 9.33172 12.0179 9.33069Z" fill="white"/>
<path d="M12.041 9.33202C12.044 9.33183 12.047 9.3304 12.0498 9.33008C12.0616 9.33008 12.0634 9.33056 12.041 9.33202Z" fill="white"/>
</svg>
