<svg width="21" height="21" viewBox="0 0 21 21" fill="none" xmlns="http://www.w3.org/2000/svg">
<path d="M0.526184 20.3238L1.87125 15.4317C1.04179 14.0031 0.608383 12.3773 0.608383 10.7145C0.608383 5.50981 4.86402 1.27618 10.0911 1.27618C12.628 1.27618 15.0081 2.26205 16.7977 4.04404C18.5874 5.82976 19.5738 8.19955 19.5738 10.7219C19.5701 15.9265 15.3182 20.1601 10.0911 20.1601H10.0873C8.49943 20.1601 6.94139 19.7621 5.55523 19.0106L0.526184 20.3238Z" fill="url(#paint0_linear_1_75)"/>
<path d="M0.526184 20.3238L1.87125 15.4317C1.04179 14.0031 0.608383 12.3773 0.608383 10.7145C0.608383 5.50981 4.86402 1.27618 10.0911 1.27618C12.628 1.27618 15.0081 2.26205 16.7977 4.04404C18.5874 5.82976 19.5738 8.19955 19.5738 10.7219C19.5701 15.9265 15.3182 20.1601 10.0911 20.1601H10.0873C8.49943 20.1601 6.94139 19.7621 5.55523 19.0106L0.526184 20.3238Z" fill="white"/>
<path d="M0.526184 20.3238L1.87125 15.4317C1.04179 14.0031 0.608383 12.3773 0.608383 10.7145C0.608383 5.50981 4.86402 1.27618 10.0911 1.27618C12.628 1.27618 15.0081 2.26205 16.7977 4.04404C18.5874 5.82976 19.5738 8.19955 19.5738 10.7219C19.5701 15.9265 15.3182 20.1601 10.0911 20.1601H10.0873C8.49943 20.1601 6.94139 19.7621 5.55523 19.0106L0.526184 20.3238Z" fill="url(#paint1_linear_1_75)"/>
<path fill-rule="evenodd" clip-rule="evenodd" d="M7.71853 6.76727C7.53918 6.37292 7.35237 6.36548 7.18424 6.35804C7.04599 6.35061 6.88907 6.35432 6.72841 6.35432C6.57149 6.35432 6.31368 6.41385 6.09697 6.64822C5.88027 6.8826 5.26752 7.45551 5.26752 8.61623C5.26752 9.77694 6.11566 10.9005 6.23522 11.0567C6.35478 11.213 7.87545 13.672 10.2816 14.617C12.2843 15.4019 12.6915 15.2457 13.125 15.2085C13.5584 15.1712 14.5261 14.6392 14.7241 14.0887C14.9221 13.5381 14.9221 13.0656 14.8623 12.9689C14.8026 12.8722 14.6456 12.8127 14.4065 12.6936C14.1711 12.5746 13.0053 12.0053 12.7887 11.9272C12.572 11.8491 12.4151 11.8082 12.2544 12.0463C12.0974 12.2807 11.6416 12.8127 11.5034 12.9689C11.3651 13.1251 11.2269 13.1474 10.9915 13.0284C10.7561 12.9093 9.99019 12.6601 9.08601 11.8566C8.37985 11.2315 7.90535 10.4577 7.7671 10.2234C7.62886 9.989 7.75216 9.85879 7.87172 9.74345C7.97634 9.63929 8.1071 9.46816 8.22666 9.33051C8.34622 9.19286 8.38358 9.09614 8.46205 8.93617C8.54052 8.77992 8.50315 8.64227 8.44336 8.52323C8.39106 8.40045 7.9315 7.23602 7.71853 6.76727Z" fill="white"/>
<defs>
<linearGradient id="paint0_linear_1_75" x1="10.05" y1="20.3238" x2="10.05" y2="1.27618" gradientUnits="userSpaceOnUse">
<stop stop-color="#F9F9F9"/>
<stop offset="1" stop-color="white"/>
</linearGradient>
<linearGradient id="paint1_linear_1_75" x1="10.0499" y1="20.3254" x2="10.0499" y2="1.27487" gradientUnits="userSpaceOnUse">
<stop stop-color="#20B038"/>
<stop offset="1" stop-color="#60D66A"/>
</linearGradient>
</defs>
</svg>
