<svg width="16" height="16" viewBox="0 0 16 16" fill="none" xmlns="http://www.w3.org/2000/svg">
<path fill-rule="evenodd" clip-rule="evenodd" d="M8.00004 15.0001C11.676 15.0001 14.6667 12.0093 14.6667 8.33342C14.6667 4.6576 11.676 1.66675 8.00004 1.66675C4.32404 1.66675 1.33337 4.6576 1.33337 8.33342C1.33337 12.0093 4.32404 15.0001 8.00004 15.0001ZM11.7688 6.70657L7.50507 10.9703C7.37111 11.1042 7.18942 11.1796 6.99999 11.1796C6.81057 11.1796 6.62887 11.1042 6.49494 10.9703L4.23125 8.70659C3.95248 8.42782 3.9524 7.97527 4.23133 7.69654C4.51031 7.41779 4.96247 7.41772 5.24138 7.6966L6.99999 9.45505L10.7586 5.69663C11.0375 5.41775 11.4897 5.4178 11.7686 5.69658C12.0475 5.9753 12.0476 6.42777 11.7688 6.70657Z" fill="#E31E25"/>
</svg>
